<svg width="15.502047" height="6.660950" viewBox="0 0 15.502 6.66095" fill="none" xmlns="http://www.w3.org/2000/svg" xmlns:xlink="http://www.w3.org/1999/xlink">
	<defs/>
	<path id="Arrow 1" d="M14.29 3.33L11.81 0.85C11.62 0.65 11.62 0.34 11.81 0.14C12.01 -0.05 12.32 -0.05 12.52 0.14L15.35 2.97C15.55 3.17 15.55 3.48 15.35 3.68L12.52 6.51C12.32 6.71 12.01 6.71 11.81 6.51C11.62 6.31 11.62 6 11.81 5.8L14.29 3.33Z" fill="#7D67FF" fill-opacity="1.000000" fill-rule="nonzero"/>
	<path id="Arrow 1" d="M13.79 2.83L11.81 0.85C11.62 0.65 11.62 0.34 11.81 0.14C12.01 -0.05 12.32 -0.05 12.52 0.14L15.35 2.97C15.55 3.17 15.55 3.48 15.35 3.68L12.52 6.51C12.32 6.71 12.01 6.71 11.81 6.51C11.62 6.31 11.62 6 11.81 5.8L13.79 3.83L0 3.83L0 2.83L13.79 2.83Z" fill="#7D67FF" fill-opacity="1.000000" fill-rule="evenodd"/>
</svg>
